<?xml version="1.0" encoding="UTF-8" standalone="no"?>
<!DOCTYPE svg PUBLIC "-//W3C//DTD SVG 1.1//EN" "http://www.w3.org/Graphics/SVG/1.1/DTD/svg11.dtd">
<!-- Created with Vectornator (http://vectornator.io/) -->
<svg height="100%" stroke-miterlimit="10" style="fill-rule:nonzero;clip-rule:evenodd;stroke-linecap:round;stroke-linejoin:round;" version="1.1" viewBox="0 0 190 40" width="100%" xml:space="preserve" xmlns="http://www.w3.org/2000/svg" xmlns:vectornator="http://vectornator.io" xmlns:xlink="http://www.w3.org/1999/xlink">
<defs/>
<g id="Untitled" vectornator:layerName="Untitled">
<g opacity="1" vectornator:layerName="g">
<path d="M56 30.7038L56 10.3402L64.4915 10.3402C66.0161 10.3402 67.2921 10.5556 68.3196 10.9865C69.3537 11.4174 70.1293 12.0206 70.6463 12.7962C71.17 13.5717 71.4318 14.4699 71.4318 15.4908C71.4318 16.2663 71.2694 16.959 70.9446 17.5689C70.6198 18.1721 70.1723 18.6726 69.6023 19.0703C69.0322 19.468 68.3726 19.7464 67.6236 19.9055L67.6236 20.1044C68.4455 20.1442 69.2045 20.3662 69.9006 20.7706C70.6032 21.175 71.1667 21.7384 71.5909 22.4609C72.0152 23.1768 72.2273 24.0253 72.2273 25.0064C72.2273 26.1001 71.9489 27.0779 71.392 27.9396C70.8352 28.7947 70.0298 29.4709 68.9759 29.968C67.9219 30.4586 66.6425 30.7038 65.1378 30.7038L56 30.7038ZM60.9219 26.7365L63.9645 26.7365C65.0317 26.7365 65.8172 26.5343 66.321 26.13C66.8314 25.7256 67.0866 25.1622 67.0866 24.4396C67.0866 23.916 66.964 23.4652 66.7188 23.0874C66.4735 22.7029 66.1255 22.4079 65.6747 22.2024C65.224 21.9903 64.6837 21.8842 64.054 21.8842L60.9219 21.8842L60.9219 26.7365ZM60.9219 18.7124L63.6463 18.7124C64.1832 18.7124 64.6605 18.6229 65.0781 18.4439C65.4957 18.2649 65.8205 18.0064 66.0526 17.6683C66.2912 17.3303 66.4105 16.9226 66.4105 16.4453C66.4105 15.7625 66.1686 15.2256 65.6847 14.8345C65.2008 14.4434 64.5478 14.2479 63.7259 14.2479L60.9219 14.2479L60.9219 18.7124ZM73.4737 30.7038L73.4737 15.4311L78.1968 15.4311L78.1968 18.2152L78.3559 18.2152C78.6343 17.2076 79.0883 16.4586 79.7181 15.968C80.3478 15.4709 81.0803 15.2223 81.9155 15.2223C82.1409 15.2223 82.3729 15.2389 82.6115 15.272C82.8502 15.2985 83.0722 15.3416 83.2777 15.4013L83.2777 19.6271C83.0457 19.5476 82.7408 19.4846 82.363 19.4382C81.9917 19.3918 81.6603 19.3686 81.3686 19.3686C80.7919 19.3686 80.2716 19.4979 79.8076 19.7564C79.3502 20.0083 78.9889 20.3629 78.7237 20.8203C78.4652 21.2711 78.336 21.8014 78.336 22.4112L78.336 30.7038L73.4737 30.7038ZM87.8701 30.9624C86.8957 30.9624 86.0306 30.8 85.2749 30.4751C84.5259 30.1437 83.9326 29.6465 83.4951 28.9837C83.0642 28.3142 82.8488 27.4756 82.8488 26.468C82.8488 25.6196 82.9979 24.9036 83.2962 24.3203C83.5945 23.737 84.0055 23.263 84.5292 22.8984C85.0529 22.5339 85.6561 22.2588 86.3388 22.0732C87.0216 21.8809 87.7508 21.7517 88.5263 21.6854C89.3947 21.6058 90.094 21.523 90.6243 21.4368C91.1546 21.344 91.5391 21.2147 91.7778 21.049C92.023 20.8767 92.1457 20.6347 92.1457 20.3232L92.1457 20.2734C92.1457 19.763 91.97 19.3686 91.6187 19.0902C91.2673 18.8118 90.7934 18.6726 90.1968 18.6726C89.5538 18.6726 89.0368 18.8118 88.6457 19.0902C88.2546 19.3686 88.006 19.7531 87.8999 20.2436L83.4155 20.0845C83.5481 19.1565 83.8895 18.3279 84.4397 17.5987C84.9965 16.8629 85.7588 16.2862 86.7266 15.8686C87.7011 15.4444 88.871 15.2322 90.2366 15.2322C91.211 15.2322 92.1092 15.3482 92.9312 15.5803C93.7531 15.8056 94.469 16.1371 95.0789 16.5746C95.6887 17.0054 96.159 17.5357 96.491 18.1655C96.829 18.7952 96.998 19.5144 96.998 20.3232L96.998 30.7038L92.4241 30.7038L92.4241 28.576L92.3047 28.576C92.033 29.093 91.685 29.5305 91.2607 29.8885C90.8431 30.2465 90.3493 30.5149 89.7792 30.6939C89.2157 30.8729 88.5794 30.9624 87.8701 30.9624ZM89.3715 27.7805C89.8952 27.7805 90.3658 27.6745 90.7834 27.4624C91.2077 27.2502 91.5457 26.9586 91.7976 26.5874C92.0495 26.2095 92.1755 25.772 92.1755 25.2749L92.1755 23.8232C92.0363 23.8961 91.8672 23.9624 91.6684 24.022C91.4761 24.0817 91.264 24.138 91.032 24.1911C90.8 24.2441 90.5614 24.2905 90.3161 24.3303C90.0708 24.37 89.8355 24.4065 89.6101 24.4396C89.1528 24.5125 88.7617 24.6252 88.4368 24.7777C88.1187 24.9302 87.8734 25.129 87.7011 25.3743C87.5353 25.6129 87.4525 25.898 87.4525 26.2294C87.4525 26.7332 87.6315 27.1177 87.9894 27.3828C88.354 27.648 88.8147 27.7805 89.3715 27.7805ZM98.851 30.7038L98.851 15.4311L103.713 15.4311L103.713 30.7038L98.851 30.7038ZM101.287 13.6513C100.604 13.6513 100.018 13.4259 99.527 12.9751C99.037 12.5178 98.791 11.9676 98.791 11.3246C98.791 10.6882 99.037 10.1447 99.527 9.6939C100.018 9.2365 100.604 9.0078 101.287 9.0078C101.976 9.0078 102.563 9.2365 103.047 9.6939C103.537 10.1447 103.783 10.6882 103.783 11.3246C103.783 11.9676 103.537 12.5178 103.047 12.9751C102.563 13.4259 101.976 13.6513 101.287 13.6513ZM110.55 21.9936L110.55 30.7038L105.688 30.7038L105.688 15.4311L110.312 15.4311L110.312 18.2351L110.481 18.2351C110.819 17.3004 111.395 16.5679 112.211 16.0376C113.026 15.5007 113.997 15.2322 115.124 15.2322C116.198 15.2322 117.129 15.4742 117.918 15.9581C118.714 16.4354 119.33 17.1049 119.768 17.9666C120.212 18.8217 120.43 19.8227 120.424 20.9695L120.424 30.7038L115.562 30.7038L115.562 21.924C115.568 21.0755 115.353 20.4126 114.915 19.9354C114.484 19.4581 113.884 19.2195 113.116 19.2195C112.605 19.2195 112.154 19.3322 111.763 19.5575C111.379 19.7763 111.08 20.0911 110.868 20.5021C110.663 20.9131 110.557 21.4103 110.55 21.9936Z" fill="#ffffff" fill-rule="nonzero" opacity="0" stroke="none" vectornator:layerName="path"/>
<path d="M125.168 30.704L121.19 15.431L126.073 15.431L128.131 25.215L128.26 25.215L130.467 15.431L135.23 15.431L137.497 25.146L137.627 25.146L139.625 15.431L144.507 15.431L140.52 30.704L135.32 30.704L132.933 21.805L132.764 21.805L130.378 30.704L125.168 30.704Z" fill="#ffffff" fill-rule="nonzero" opacity="0" stroke="none" vectornator:layerName="polygon"/>
<path d="M149.644 30.9624C148.67 30.9624 147.805 30.8 147.049 30.4751C146.3 30.1437 145.706 29.6465 145.269 28.9837C144.838 28.3142 144.623 27.4756 144.623 26.468C144.623 25.6196 144.772 24.9036 145.07 24.3203C145.368 23.737 145.779 23.263 146.303 22.8984C146.827 22.5339 147.43 22.2588 148.113 22.0732C148.796 21.8809 149.525 21.7517 150.3 21.6854C151.169 21.6058 151.868 21.523 152.398 21.4368C152.929 21.344 153.313 21.2147 153.552 21.049C153.797 20.8767 153.92 20.6347 153.92 20.3232L153.92 20.2734C153.92 19.763 153.744 19.3686 153.393 19.0902C153.041 18.8118 152.567 18.6726 151.971 18.6726C151.328 18.6726 150.811 18.8118 150.42 19.0902C150.028 19.3686 149.78 19.7531 149.674 20.2436L145.189 20.0845C145.322 19.1565 145.663 18.3279 146.214 17.5987C146.77 16.8629 147.533 16.2862 148.501 15.8686C149.475 15.4444 150.645 15.2322 152.01 15.2322C152.985 15.2322 153.883 15.3482 154.705 15.5803C155.527 15.8056 156.243 16.1371 156.853 16.5746C157.463 17.0054 157.933 17.5357 158.265 18.1655C158.603 18.7952 158.772 19.5144 158.772 20.3232L158.772 30.7038L154.198 30.7038L154.198 28.576L154.079 28.576C153.807 29.093 153.459 29.5305 153.035 29.8885C152.617 30.2465 152.123 30.5149 151.553 30.6939C150.99 30.8729 150.353 30.9624 149.644 30.9624ZM151.145 27.7805C151.669 27.7805 152.14 27.6745 152.557 27.4624C152.982 27.2502 153.32 26.9586 153.572 26.5874C153.823 26.2095 153.949 25.772 153.949 25.2749L153.949 23.8232C153.81 23.8961 153.641 23.9624 153.442 24.022C153.25 24.0817 153.038 24.138 152.806 24.1911C152.574 24.2441 152.335 24.2905 152.09 24.3303C151.845 24.37 151.609 24.4065 151.384 24.4396C150.927 24.5125 150.536 24.6252 150.211 24.7777C149.893 24.9302 149.647 25.129 149.475 25.3743C149.309 25.6129 149.226 25.898 149.226 26.2294C149.226 26.7332 149.405 27.1177 149.763 27.3828C150.128 27.648 150.589 27.7805 151.145 27.7805Z" fill="#ffffff" fill-rule="nonzero" opacity="0" stroke="none" vectornator:layerName="path"/>
<path d="M174.893 15.431L169.653 30.704L164.085 30.704L158.855 15.431L163.976 15.431L166.79 25.951L166.949 25.951L169.773 15.431L174.893 15.431Z" fill="#ffffff" fill-rule="nonzero" opacity="0" stroke="none" vectornator:layerName="polygon"/>
<path d="M182.285 30.9922C180.687 30.9922 179.308 30.6773 178.148 30.0476C176.995 29.4112 176.107 28.5064 175.484 27.3331C174.867 26.1532 174.559 24.7512 174.559 23.1271C174.559 21.5495 174.87 20.1707 175.493 18.9908C176.117 17.8042 176.995 16.8828 178.128 16.2266C179.262 15.5637 180.598 15.2322 182.136 15.2322C183.223 15.2322 184.217 15.4013 185.118 15.7393C186.02 16.0774 186.799 16.5779 187.455 17.2408C188.111 17.9036 188.622 18.7223 188.986 19.6967C189.351 20.6645 189.533 21.7749 189.533 23.0277L189.533 24.2408L176.259 24.2408L176.259 21.4169L185.009 21.4169C185.002 20.8999 184.88 20.4392 184.641 20.0348C184.403 19.6304 184.074 19.3156 183.657 19.0902C183.246 18.8582 182.772 18.7422 182.235 18.7422C181.691 18.7422 181.204 18.8648 180.773 19.1101C180.342 19.3487 180.001 19.6768 179.749 20.0945C179.497 20.5054 179.365 20.9728 179.351 21.4965L179.351 24.37C179.351 24.9931 179.474 25.54 179.719 26.0107C179.965 26.4747 180.313 26.8359 180.763 27.0945C181.214 27.353 181.751 27.4822 182.374 27.4822C182.805 27.4822 183.196 27.4226 183.547 27.3033C183.899 27.184 184.2 27.0083 184.452 26.7763C184.704 26.5443 184.893 26.2592 185.019 25.9212L189.484 26.0504C189.298 27.0514 188.89 27.9231 188.261 28.6655C187.637 29.4013 186.819 29.9747 185.805 30.3857C184.79 30.79 183.617 30.9922 182.285 30.9922Z" fill="#ffffff" fill-rule="nonzero" opacity="0" stroke="none" vectornator:layerName="path"/>
<path d="M35.213 11.501L35.206 6.288L25.586 0L25.586 4.022L31.931 8.2L31.936 11.402L28.988 13.398L26.977 11.931L26.977 9.446L23.7 7.204L23.7 11.727L18.505 14.915L18.495 23.335L14.822 25.403L12.937 23.926L12.937 21.488L15.169 19.959L15.169 19.939L15.169 16.166L11.152 18.854L8.081 16.856L5.276 18.693L9.659 21.694L9.659 23.536L6.5 25.674L3.277 23.492L3.277 16.23L8.062 12.991L8.066 9.875L14.203 13.827L19.361 10.394L16.216 8.559L14.159 9.947L9.677 6.983L14.731 4.036L19.11 6.603L19.11 2.775L14.736 0.211L4.794 6.008L4.787 11.223L0 14.465L0 25.257L4.787 28.499L4.794 33.714L14.414 40L14.414 35.981L8.069 31.803L8.064 28.601L11.012 26.605L13.023 28.072L13.023 30.557L16.3 32.798L16.3 28.275L21.569 25.088L21.628 16.667L25.178 14.599L27.063 16.076L27.063 18.514L24.831 20.043L24.831 20.063L24.831 23.837L28.848 21.148L31.919 23.146L34.724 21.309L30.34 18.306L30.34 16.466L33.5 14.329L36.723 16.511L36.723 23.772L31.939 27.012L31.934 30.127L25.797 26.173L20.639 29.584L23.784 31.416L25.841 30.055L30.323 33.019L25.269 35.966L20.89 33.399L20.89 37.225L25.264 39.789L35.206 33.995L35.213 28.779L40 25.537L40 14.743L35.213 11.501Z" fill="#ac6aff" fill-rule="nonzero" opacity="1" stroke="none" vectornator:layerName="polygon"/>
</g>
</g>
<g id="Layer-1" vectornator:layerName="Layer 1">
<g fill="#ffffff" opacity="1" stroke="none" vectornator:layerName="Text 1">
<path d="M46.0584 11.5254L52.6941 11.5254L52.6941 27.7119L63.0506 27.7119L63.0506 33L46.0584 33L46.0584 11.5254Z"/>
<path d="M82.9432 26.7012L70.99 26.7012C71.0975 27.6582 71.3562 28.3711 71.7664 28.8398C72.3426 29.5137 73.0945 29.8506 74.0223 29.8506C74.6082 29.8506 75.1648 29.7041 75.6922 29.4111C76.0144 29.2256 76.3611 28.8984 76.7322 28.4297L82.6062 28.9717C81.7078 30.5342 80.6238 31.6548 79.3543 32.3335C78.0848 33.0122 76.2635 33.3516 73.8904 33.3516C71.8299 33.3516 70.2088 33.061 69.0271 32.48C67.8455 31.8989 66.8665 30.9761 66.0901 29.7114C65.3138 28.4468 64.9256 26.96 64.9256 25.251C64.9256 22.8193 65.7044 20.8516 67.262 19.3477C68.8196 17.8437 70.9705 17.0918 73.7146 17.0918C75.9412 17.0918 77.699 17.4287 78.9881 18.1025C80.2771 18.7764 81.2586 19.7529 81.9324 21.0322C82.6062 22.3115 82.9432 23.9766 82.9432 26.0273L82.9432 26.7012ZM76.8787 23.8447C76.7615 22.6924 76.4515 21.8672 75.9485 21.3691C75.4456 20.8711 74.784 20.6221 73.9637 20.6221C73.0164 20.6221 72.2596 20.998 71.6932 21.75C71.3318 22.2188 71.1023 22.917 71.0047 23.8447L76.8787 23.8447Z"/>
<path d="M85.6824 17.4434L91.2342 17.4434L91.2342 19.9775C92.0643 18.9424 92.9041 18.2026 93.7537 17.7583C94.6033 17.314 95.6385 17.0918 96.8592 17.0918C98.5096 17.0918 99.8011 17.5825 100.734 18.564C101.666 19.5454 102.133 21.0615 102.133 23.1123L102.133 33L96.1414 33L96.1414 24.4453C96.1414 23.4687 95.9607 22.7778 95.5994 22.3726C95.2381 21.9673 94.7303 21.7646 94.076 21.7646C93.3533 21.7646 92.7674 22.0381 92.3182 22.585C91.8689 23.1318 91.6443 24.1133 91.6443 25.5293L91.6443 33L85.6824 33L85.6824 17.4434Z"/>
<path d="M105.692 11.5254L111.786 11.5254L111.786 22.5996L116.239 17.4434L123.578 17.4434L117.997 22.8926L123.9 33L117.177 33L114.027 26.7598L111.786 28.957L111.786 33L105.692 33L105.692 11.5254Z"/>
<path d="M124.94 25.8955L131.254 25.5C131.39 26.5254 131.669 27.3066 132.089 27.8438C132.772 28.7129 133.749 29.1475 135.018 29.1475C135.966 29.1475 136.696 28.9253 137.208 28.481C137.721 28.0366 137.977 27.5215 137.977 26.9355C137.977 26.3789 137.733 25.8809 137.245 25.4414C136.757 25.002 135.624 24.5869 133.846 24.1963C130.936 23.542 128.861 22.6729 127.621 21.5889C126.371 20.5049 125.746 19.123 125.746 17.4434C125.746 16.3398 126.066 15.2974 126.705 14.3159C127.345 13.3345 128.307 12.563 129.591 12.0015C130.875 11.4399 132.636 11.1592 134.872 11.1592C137.616 11.1592 139.708 11.6694 141.149 12.6899C142.589 13.7104 143.446 15.334 143.72 17.5605L137.465 17.9268C137.299 16.96 136.95 16.2568 136.417 15.8174C135.885 15.3779 135.15 15.1582 134.213 15.1582C133.441 15.1582 132.86 15.3218 132.47 15.6489C132.079 15.9761 131.884 16.374 131.884 16.8428C131.884 17.1846 132.045 17.4922 132.367 17.7656C132.679 18.0488 133.422 18.3125 134.594 18.5566C137.494 19.1816 139.572 19.814 140.826 20.4536C142.081 21.0933 142.994 21.8867 143.566 22.834C144.137 23.7813 144.423 24.8408 144.423 26.0127C144.423 27.3896 144.042 28.6592 143.28 29.8213C142.518 30.9834 141.454 31.8647 140.087 32.4653C138.72 33.0659 136.996 33.3662 134.916 33.3662C131.263 33.3662 128.734 32.6631 127.328 31.2568C125.922 29.8506 125.126 28.0635 124.94 25.8955Z"/>
<path d="M164.637 26.7012L152.684 26.7012C152.792 27.6582 153.051 28.3711 153.461 28.8398C154.037 29.5137 154.789 29.8506 155.717 29.8506C156.303 29.8506 156.859 29.7041 157.387 29.4111C157.709 29.2256 158.055 28.8984 158.427 28.4297L164.301 28.9717C163.402 30.5342 162.318 31.6548 161.049 32.3335C159.779 33.0122 157.958 33.3516 155.585 33.3516C153.524 33.3516 151.903 33.061 150.721 32.48C149.54 31.8989 148.561 30.9761 147.784 29.7114C147.008 28.4468 146.62 26.96 146.62 25.251C146.62 22.8193 147.399 20.8516 148.956 19.3477C150.514 17.8437 152.665 17.0918 155.409 17.0918C157.636 17.0918 159.393 17.4287 160.682 18.1025C161.971 18.7764 162.953 19.7529 163.627 21.0322C164.301 22.3115 164.637 23.9766 164.637 26.0273L164.637 26.7012ZM158.573 23.8447C158.456 22.6924 158.146 21.8672 157.643 21.3691C157.14 20.8711 156.478 20.6221 155.658 20.6221C154.711 20.6221 153.954 20.998 153.387 21.75C153.026 22.2188 152.797 22.917 152.699 23.8447L158.573 23.8447Z"/>
<path d="M167.377 17.4434L172.929 17.4434L172.929 19.9775C173.759 18.9424 174.598 18.2026 175.448 17.7583C176.298 17.314 177.333 17.0918 178.554 17.0918C180.204 17.0918 181.495 17.5825 182.428 18.564C183.361 19.5454 183.827 21.0615 183.827 23.1123L183.827 33L177.836 33L177.836 24.4453C177.836 23.4687 177.655 22.7778 177.294 22.3726C176.932 21.9673 176.425 21.7646 175.77 21.7646C175.048 21.7646 174.462 22.0381 174.012 22.585C173.563 23.1318 173.339 24.1133 173.339 25.5293L173.339 33L167.377 33L167.377 17.4434Z"/>
</g>
</g>
</svg>
